# xmcd CD database file
#
# Track frame offsets:
#	150
#	11816
#	26077
#	39890
#	55561
#	67873
#	79290
#	93652
#	110145
#	125319
#	141652
#	156071
#
# Disc length: 2289 seconds
#
# Revision: 0
# Processed by: cddbd v1.5PL3 Copyright (c) Steve Scherf et al.
# Submitted via: CDex 1.51
#
DISCID=9e08ef0c
DTITLE=Patsy Riggir - Never Ending Songs Of Love
DYEAR=1900
DGENRE=Country
TTITLE0=Never Ending Song Of Love
TTITLE1=Red Sails In The Sunset
TTITLE2=Starry Eyed
TTITLE3=You Belong To Me
TTITLE4=Everybodys Reaching Out For Someone
TTITLE5=Back In Baby's Arms
TTITLE6=There's A Kind Of Hush
TTITLE7=True Love Ways
TTITLE8=When You Fall In Love (Everythings A Waltz)
TTITLE9=To Each His Own
TTITLE10=Endlessly
TTITLE11=(Until) The Twelfth Of Never
EXTD=
EXTT0=
EXTT1=
EXTT2=
EXTT3=
EXTT4=
EXTT5=
EXTT6=
EXTT7=
EXTT8=
EXTT9=
EXTT10=
EXTT11=
PLAYORDER=
